<svg xmlns="http://www.w3.org/2000/svg" width="55.147" height="38.603" viewBox="0 0 55.147 38.603">
  <path id="user-friends" d="M16.544,51.3a9.651,9.651,0,1,0-9.651-9.651A9.646,9.646,0,0,0,16.544,51.3Zm6.618,2.757h-.715a13.324,13.324,0,0,1-11.8,0H9.926A9.929,9.929,0,0,0,0,63.985v2.482A4.137,4.137,0,0,0,4.136,70.6H28.952a4.137,4.137,0,0,0,4.136-4.136V63.985A9.929,9.929,0,0,0,23.162,54.059ZM41.36,51.3a8.272,8.272,0,1,0-8.272-8.272A8.274,8.274,0,0,0,41.36,51.3ZM45.5,54.059h-.327a10.866,10.866,0,0,1-7.617,0h-.327a9.57,9.57,0,0,0-4.8,1.327,12.61,12.61,0,0,1,3.421,8.6v3.309c0,.19-.043.371-.052.551H51.011a4.137,4.137,0,0,0,4.136-4.136A9.646,9.646,0,0,0,45.5,54.059Z" transform="translate(0 -32)" fill="#fff"/>
</svg>
