<svg xmlns="http://www.w3.org/2000/svg" width="19.623" height="19.623" viewBox="0 0 19.623 19.623">
  <path id="Icon_ionic-md-exit" data-name="Icon ionic-md-exit" d="M12.24,18.236l1.526,1.526,5.451-5.451L13.766,8.861,12.24,10.387l2.834,2.834H4.5V15.4H15.02ZM21.942,4.5H6.68A2.187,2.187,0,0,0,4.5,6.68v4.361H6.68V6.68H21.942V21.942H6.68V17.582H4.5v4.361a2.187,2.187,0,0,0,2.18,2.18H21.942a2.187,2.187,0,0,0,2.18-2.18V6.68A2.187,2.187,0,0,0,21.942,4.5Z" transform="translate(-4.5 -4.5)" fill="#fff"/>
</svg>
