<svg xmlns="http://www.w3.org/2000/svg" width="15.817" height="15.817" viewBox="0 0 15.817 15.817">
  <path id="Icon_ionic-md-exit" data-name="Icon ionic-md-exit" d="M10.739,15.572l1.23,1.23,4.394-4.394L11.969,8.015l-1.23,1.23,2.285,2.285H4.5v1.757h8.48ZM18.559,4.5H6.257A1.762,1.762,0,0,0,4.5,6.257V9.772H6.257V6.257h12.3v12.3H6.257V15.045H4.5v3.515a1.762,1.762,0,0,0,1.757,1.757h12.3a1.762,1.762,0,0,0,1.757-1.757V6.257A1.762,1.762,0,0,0,18.559,4.5Z" transform="translate(-4.5 -4.5)" fill="#df5757"/>
</svg>
