<svg id="Icon_ionic-ios-mail" data-name="Icon ionic-ios-mail" xmlns="http://www.w3.org/2000/svg" width="18.602" height="12.878" viewBox="0 0 18.602 12.878">
  <path id="Path_18" data-name="Path 18" d="M21.825,10.341l-4.811,4.9a.086.086,0,0,0,0,.125l3.367,3.586a.58.58,0,0,1,0,.823.583.583,0,0,1-.823,0L16.2,16.2a.092.092,0,0,0-.13,0l-.818.832a3.6,3.6,0,0,1-2.567,1.082A3.672,3.672,0,0,1,10.069,17l-.787-.8a.092.092,0,0,0-.13,0L5.8,19.776a.583.583,0,0,1-.823,0,.58.58,0,0,1,0-.823l3.367-3.586a.1.1,0,0,0,0-.125l-4.816-4.9a.088.088,0,0,0-.152.063V20.21a1.435,1.435,0,0,0,1.431,1.431h15.74a1.435,1.435,0,0,0,1.431-1.431V10.4A.089.089,0,0,0,21.825,10.341Z" transform="translate(-3.375 -8.763)" fill="#585757"/>
  <path id="Path_19" data-name="Path 19" d="M12.986,16.062a2.431,2.431,0,0,0,1.748-.733L21.75,8.188a1.405,1.405,0,0,0-.885-.313H5.111a1.4,1.4,0,0,0-.885.313l7.016,7.141A2.431,2.431,0,0,0,12.986,16.062Z" transform="translate(-3.685 -7.875)" fill="#585757"/>
</svg>
