<svg xmlns="http://www.w3.org/2000/svg" width="49.632" height="38.603" viewBox="0 0 49.632 38.603">
  <path id="comments" d="M35.845,45.787C35.845,38.17,27.823,32,17.923,32S0,38.17,0,45.787a11.69,11.69,0,0,0,3.274,7.927A19.4,19.4,0,0,1,.19,58.41a.685.685,0,0,0-.129.75.675.675,0,0,0,.629.414,15.172,15.172,0,0,0,7.643-2.154,21.925,21.925,0,0,0,9.59,2.154C27.823,59.573,35.845,53.4,35.845,45.787ZM46.358,64.743a11.674,11.674,0,0,0,3.274-7.927c0-5.765-4.61-10.7-11.141-12.761a12.806,12.806,0,0,1,.112,1.732c0,9.125-9.28,16.544-20.68,16.544a25.834,25.834,0,0,1-2.731-.164c2.714,4.955,9.091,8.436,16.518,8.436a21.805,21.805,0,0,0,9.59-2.154A15.172,15.172,0,0,0,48.943,70.6a.679.679,0,0,0,.629-.414.691.691,0,0,0-.129-.75A19.188,19.188,0,0,1,46.358,64.743Z" transform="translate(0 -32)" fill="#fff"/>
</svg>
