<svg xmlns="http://www.w3.org/2000/svg" width="44.118" height="44.118" viewBox="0 0 44.118 44.118">
  <path id="book-reader" d="M30.331,8.272a8.272,8.272,0,1,0-8.272,8.272A8.272,8.272,0,0,0,30.331,8.272Zm-10.2,12.5c-5.112-3.13-13.393-3.99-17.56-4.226A2.384,2.384,0,0,0,0,18.883v19.2a2.37,2.37,0,0,0,2.283,2.331c3.762.2,11.373.92,16.634,3.57a1.2,1.2,0,0,0,1.765-1.023v-21.2a1.146,1.146,0,0,0-.553-.987ZM41.55,16.548c-4.166.236-12.448,1.1-17.559,4.226a1.168,1.168,0,0,0-.552,1V42.956a1.2,1.2,0,0,0,1.77,1.025c5.26-2.647,12.866-3.37,16.628-3.567a2.371,2.371,0,0,0,2.283-2.332v-19.2A2.385,2.385,0,0,0,41.55,16.548Z" fill="#fff"/>
</svg>
