<svg xmlns="http://www.w3.org/2000/svg" width="55.147" height="44.117" viewBox="0 0 55.147 44.117">
  <path id="user-plus" d="M53.768,17.923H48.253V12.408a1.383,1.383,0,0,0-1.379-1.379H44.117a1.383,1.383,0,0,0-1.379,1.379v5.515H37.224A1.383,1.383,0,0,0,35.845,19.3v2.757a1.383,1.383,0,0,0,1.379,1.379h5.515v5.515a1.383,1.383,0,0,0,1.379,1.379h2.757a1.383,1.383,0,0,0,1.379-1.379V23.437h5.515a1.383,1.383,0,0,0,1.379-1.379V19.3A1.383,1.383,0,0,0,53.768,17.923ZM19.3,22.059A11.029,11.029,0,1,0,8.272,11.029,11.029,11.029,0,0,0,19.3,22.059Zm7.721,2.757H25.583a15,15,0,0,1-12.563,0H11.581A11.584,11.584,0,0,0,0,36.4v3.585a4.137,4.137,0,0,0,4.136,4.136H34.467A4.137,4.137,0,0,0,38.6,39.981V36.4A11.584,11.584,0,0,0,27.022,24.816Z" fill="#fff"/>
</svg>
