<svg xmlns="http://www.w3.org/2000/svg" width="17.508" height="15.562" viewBox="0 0 17.508 15.562">
  <path id="Icon_awesome-mail-bulk" data-name="Icon awesome-mail-bulk" d="M4.863,13.617a3.687,3.687,0,0,1-1.945-.973C.973,11.283.389,10.8,0,10.5V14.59a.973.973,0,0,0,.973.973H8.754a.973.973,0,0,0,.973-.973V10.5c-.389.292-.973.778-2.918,2.14A3.687,3.687,0,0,1,4.863,13.617ZM8.754,7.781H.973A.973.973,0,0,0,0,8.754V9.24c.778.584.681.584,3.5,2.626.292.195.875.778,1.362.778s1.07-.584,1.362-.681c2.821-2.043,2.723-2.043,3.5-2.626V8.754A.973.973,0,0,0,8.754,7.781Zm7.781-2.918H6.809a.973.973,0,0,0-.973.973v.973H8.754A1.948,1.948,0,0,1,10.69,8.566l.009-.007v4.085h5.836a.973.973,0,0,0,.973-.973V5.836A.973.973,0,0,0,16.535,4.863Zm-.973,3.891H13.617V6.809h1.945ZM4.863,5.836A1.947,1.947,0,0,1,6.809,3.891h6.809V.973A.973.973,0,0,0,12.644,0H2.918a.973.973,0,0,0-.973.973V6.809H4.863Z" fill="#585757"/>
</svg>
