<svg xmlns="http://www.w3.org/2000/svg" width="13.863" height="13.863" viewBox="0 0 13.863 13.863">
  <path id="times" d="M9.559,86.931,13.5,82.99a1.239,1.239,0,0,0,0-1.752l-.876-.876a1.239,1.239,0,0,0-1.752,0L6.931,84.3,2.99,80.363a1.239,1.239,0,0,0-1.752,0l-.876.876a1.239,1.239,0,0,0,0,1.752L4.3,86.931.363,90.872a1.239,1.239,0,0,0,0,1.752l.876.876a1.239,1.239,0,0,0,1.752,0l3.941-3.941L10.872,93.5a1.239,1.239,0,0,0,1.752,0l.876-.876a1.239,1.239,0,0,0,0-1.752Z" transform="translate(0 -80)" fill="#fff"/>
</svg>
