<svg xmlns="http://www.w3.org/2000/svg" width="17.07" height="16.693" viewBox="0 0 17.07 16.693">
  <path id="Icon_material-notifications-active" data-name="Icon material-notifications-active" d="M7.8,5.1,6.572,3.878A8.924,8.924,0,0,0,3.045,10.6H4.757A7.23,7.23,0,0,1,7.8,5.1ZM18.4,10.6h1.712a8.979,8.979,0,0,0-3.527-6.72L15.372,5.1a7.272,7.272,0,0,1,3.03,5.5Zm-1.686.428c0-2.628-1.4-4.828-3.852-5.41V5.034a1.284,1.284,0,1,0-2.568,0v.582C7.839,6.2,6.444,8.39,6.444,11.026v4.28L4.731,17.019v.856h13.7v-.856l-1.712-1.712ZM11.58,20.443a1.5,1.5,0,0,0,.342-.034,1.737,1.737,0,0,0,1.233-1.01,1.719,1.719,0,0,0,.128-.668H9.859A1.724,1.724,0,0,0,11.58,20.443Z" transform="translate(-3.045 -3.75)" fill="#585757"/>
</svg>
