<svg xmlns="http://www.w3.org/2000/svg" width="17.919" height="17.924" viewBox="0 0 17.919 17.924">
  <path id="Icon_ionic-ios-settings" data-name="Icon ionic-ios-settings" d="M20.94,13.46a2.306,2.306,0,0,1,1.479-2.151,9.14,9.14,0,0,0-1.106-2.665,2.337,2.337,0,0,1-.938.2,2.3,2.3,0,0,1-2.1-3.239A9.112,9.112,0,0,0,15.611,4.5a2.3,2.3,0,0,1-4.3,0A9.14,9.14,0,0,0,8.644,5.606a2.3,2.3,0,0,1-2.1,3.239,2.261,2.261,0,0,1-.938-.2,9.342,9.342,0,0,0-1.1,2.669,2.305,2.305,0,0,1,0,4.3A9.14,9.14,0,0,0,5.611,18.28a2.3,2.3,0,0,1,3.038,3.038,9.193,9.193,0,0,0,2.665,1.106,2.3,2.3,0,0,1,4.293,0,9.14,9.14,0,0,0,2.665-1.106,2.3,2.3,0,0,1,3.038-3.038,9.193,9.193,0,0,0,1.106-2.665A2.317,2.317,0,0,1,20.94,13.46ZM13.5,17.188a3.733,3.733,0,1,1,3.733-3.733A3.732,3.732,0,0,1,13.5,17.188Z" transform="translate(-4.5 -4.5)" fill="#585757"/>
</svg>
