<svg xmlns="http://www.w3.org/2000/svg" width="20.016" height="14.011" viewBox="0 0 20.016 14.011">
  <path id="Icon_awesome-users" data-name="Icon awesome-users" d="M3,8.255a2,2,0,1,0-2-2A2,2,0,0,0,3,8.255Zm14.011,0a2,2,0,1,0-2-2A2,2,0,0,0,17.013,8.255Zm1,1h-2a2,2,0,0,0-1.41.582,4.575,4.575,0,0,1,2.349,3.421h2.064a1,1,0,0,0,1-1v-1A2,2,0,0,0,18.014,9.255Zm-8.006,0a3.5,3.5,0,1,0-3.5-3.5A3.5,3.5,0,0,0,10.008,9.255Zm2.4,1h-.26a4.836,4.836,0,0,1-4.285,0h-.26a3.6,3.6,0,0,0-3.6,3.6v.9a1.5,1.5,0,0,0,1.5,1.5h9.007a1.5,1.5,0,0,0,1.5-1.5v-.9A3.6,3.6,0,0,0,12.41,10.256Zm-7-.419A2,2,0,0,0,4,9.255H2a2,2,0,0,0-2,2v1a1,1,0,0,0,1,1H3.062A4.586,4.586,0,0,1,5.414,9.837Z" transform="translate(0 -2.25)" fill="#585757"/>
</svg>
