<svg id="Icon_ionic-ios-document" data-name="Icon ionic-ios-document" xmlns="http://www.w3.org/2000/svg" width="12.562" height="16.529" viewBox="0 0 12.562 16.529">
  <path id="Path_16" data-name="Path 16" d="M21.387,8.031h3.76a.2.2,0,0,0,.207-.207h0a1.223,1.223,0,0,0-.442-.946L21.759,4.25a1.327,1.327,0,0,0-.851-.306h0a.305.305,0,0,0-.306.306v3A.785.785,0,0,0,21.387,8.031Z" transform="translate(-12.792 -3.94)" fill="#585757"/>
  <path id="Path_17" data-name="Path 17" d="M14.048,7.243V3.938H8.635A1.326,1.326,0,0,0,7.313,5.26V19.144a1.326,1.326,0,0,0,1.322,1.322h9.917a1.326,1.326,0,0,0,1.322-1.322V9.1H15.907A1.862,1.862,0,0,1,14.048,7.243Z" transform="translate(-7.313 -3.938)" fill="#585757"/>
</svg>
